<?xml version="1.0" encoding="utf-8" standalone="no"?>
<!DOCTYPE svg PUBLIC "-//W3C//DTD SVG 1.1//EN"
  "http://www.w3.org/Graphics/SVG/1.1/DTD/svg11.dtd">
<svg xmlns:xlink="http://www.w3.org/1999/xlink" width="460.8pt" height="345.6pt" viewBox="0 0 460.8 345.6" xmlns="http://www.w3.org/2000/svg" version="1.1">
 <metadata>
  <rdf:RDF xmlns:dc="http://purl.org/dc/elements/1.1/" xmlns:cc="http://creativecommons.org/ns#" xmlns:rdf="http://www.w3.org/1999/02/22-rdf-syntax-ns#">
   <cc:Work>
    <dc:type rdf:resource="http://purl.org/dc/dcmitype/StillImage"/>
    <dc:date>2024-04-07T20:20:26.115252</dc:date>
    <dc:format>image/svg+xml</dc:format>
    <dc:creator>
     <cc:Agent>
      <dc:title>Matplotlib v3.8.3, https://matplotlib.org/</dc:title>
     </cc:Agent>
    </dc:creator>
   </cc:Work>
  </rdf:RDF>
 </metadata>
 <defs>
  <style type="text/css">*{stroke-linejoin: round; stroke-linecap: butt}</style>
 </defs>
 <g id="figure_1">
  <g id="patch_1">
   <path d="M 0 345.6 
L 460.8 345.6 
L 460.8 0 
L 0 0 
z
" style="fill: #ffffff"/>
  </g>
  <g id="axes_1">
   <g id="patch_2">
    <path d="M 57.6 307.584 
L 414.72 307.584 
L 414.72 41.472 
L 57.6 41.472 
z
" style="fill: #ffffff"/>
   </g>
   <g id="Quiver_1">
    <path d="M 393.82152 56.548734 
L 370.546032 582.866062 
L 373.280982 581.646501 
L 368.675645 594.847927 
L 365.253628 581.291505 
L 367.870247 582.74773 
L 391.145735 56.430402 
L 393.82152 56.548734 
" clip-path="url(#p14e1c615cd)"/>
   </g>
   <g id="Quiver_2">
    <path d="M 393.110506 57.348368 
L 385.243941 61.515431 
L 387.681117 63.25539 
L 373.966294 65.97392 
L 383.919846 56.154878 
L 383.990184 59.148594 
L 391.856749 54.98153 
L 393.110506 57.348368 
" clip-path="url(#p14e1c615cd)"/>
   </g>
   <g id="Quiver_3">
    <path d="M 393.669418 56.462712 
L 386.04419 70.990633 
L 389.038151 71.049608 
L 379.256962 81.040359 
L 381.923413 67.315316 
L 383.67261 69.745869 
L 391.297838 55.217948 
L 393.669418 56.462712 
" clip-path="url(#p14e1c615cd)"/>
   </g>
   <g id="Quiver_4">
    <path d="M 393.23037 56.309312 
L 392.43677 57.056054 
L 394.723853 57.896512 
L 384.547628 62.98313 
L 390.243402 53.134912 
L 390.943286 55.468854 
L 391.736886 54.722112 
L 393.23037 56.309312 
" clip-path="url(#p14e1c615cd)"/>
   </g>
   <g id="Quiver_5">
    <path d="M 392.620884 55.455626 
L 392.356351 55.592883 
L 392.895396 55.984693 
L 389.838294 56.563654 
L 392.071859 54.397493 
L 392.081838 55.063816 
L 392.346372 54.92656 
L 392.620884 55.455626 
" clip-path="url(#p14e1c615cd)"/>
   </g>
   <g id="Quiver_6">
    <path d="M 393.821121 54.798884 
L 393.093839 53.674376 
L 391.756346 53.741967 
L 391.146135 54.934065 
L 391.873416 56.058573 
L 393.210909 55.990982 
L 393.821121 54.798884 
L 393.093839 53.674376 
" clip-path="url(#p14e1c615cd)"/>
   </g>
   <g id="Quiver_7">
    <path d="M 392.148733 53.748256 
L 392.942333 53.413361 
L 391.478945 52.161056 
L 400.419628 51.192912 
L 393.488311 56.922656 
L 393.612122 55.000561 
L 392.818522 55.335456 
L 392.148733 53.748256 
" clip-path="url(#p14e1c615cd)"/>
   </g>
   <g id="Quiver_8">
    <path d="M 392.474223 52.89457 
L 393.79689 52.885166 
L 392.455414 50.249237 
L 405.710296 54.123191 
L 392.511842 58.185238 
L 393.815699 55.530499 
L 392.493032 55.539904 
L 392.474223 52.89457 
" clip-path="url(#p14e1c615cd)"/>
   </g>
   <g id="Quiver_9">
    <path d="M 392.573253 52.556421 
L 399.064809 52.991841 
L 397.907862 50.229821 
L 411.000962 55.134667 
L 397.37011 58.247006 
L 398.885558 55.664237 
L 392.394003 55.228816 
L 392.573253 52.556421 
" clip-path="url(#p14e1c615cd)"/>
   </g>
   <g id="Quiver_10">
    <path d="M 393.436891 52.627391 
L 408.779407 68.176312 
L 409.745324 65.34183 
L 416.291626 77.696292 
L 404.025744 70.985486 
L 406.87288 70.057531 
L 391.530364 54.508609 
L 393.436891 52.627391 
" clip-path="url(#p14e1c615cd)"/>
   </g>
   <g id="Quiver_11">
    <path d="M 394.392189 56.991722 
L 375.103585 104.679425 
L 378.08872 104.442245 
L 369.342702 115.35068 
L 370.63978 101.429316 
L 372.620605 103.675116 
L 391.90921 55.987413 
L 394.392189 56.991722 
" clip-path="url(#p14e1c615cd)"/>
   </g>
   <g id="Quiver_12">
    <path d="M 391.956468 56.770976 
L 378.893375 31.028952 
L 377.11094 33.435236 
L 374.633366 19.674844 
L 384.276327 29.799076 
L 381.281838 29.816898 
L 394.344931 55.558922 
L 391.956468 56.770976 
" clip-path="url(#p14e1c615cd)"/>
   </g>
   <g id="Quiver_13">
    <path d="M 392.131785 56.709394 
L 386.726685 50.372303 
L 385.557921 53.129344 
L 379.924031 40.333014 
L 391.671404 47.914964 
L 388.764513 48.634177 
L 394.169613 54.971267 
L 392.131785 56.709394 
" clip-path="url(#p14e1c615cd)"/>
   </g>
   <g id="Quiver_14">
    <path d="M 393.123673 56.309312 
L 392.330073 56.282285 
L 393.06962 57.896512 
L 385.214699 55.245448 
L 393.231779 53.134911 
L 392.384126 54.695085 
L 393.177726 54.722112 
L 393.123673 56.309312 
" clip-path="url(#p14e1c615cd)"/>
   </g>
   <g id="Quiver_15">
    <path d="M 393.093226 55.455626 
L 392.828693 55.398153 
L 392.97828 55.984693 
L 390.505366 54.61636 
L 393.323119 54.397493 
L 392.943639 54.869086 
L 393.208173 54.92656 
L 393.093226 55.455626 
" clip-path="url(#p14e1c615cd)"/>
   </g>
   <g id="Quiver_16">
    <path d="M 393.089354 54.601941 
L 393.353888 54.540596 
L 392.966664 54.072875 
L 395.796032 54.253024 
L 393.334735 55.660074 
L 393.476578 55.069663 
L 393.212045 55.131008 
L 393.089354 54.601941 
" clip-path="url(#p14e1c615cd)"/>
   </g>
   <g id="Quiver_17">
    <path d="M 392.328493 53.748256 
L 393.122093 52.926049 
L 390.684079 52.161056 
L 401.086699 46.319788 
L 395.61732 56.922656 
L 394.766506 54.513249 
L 393.972906 55.335456 
L 392.328493 53.748256 
" clip-path="url(#p14e1c615cd)"/>
   </g>
   <g id="Quiver_18">
    <path d="M 393.029624 52.89457 
L 394.352291 52.773495 
L 392.787474 50.249237 
L 406.377368 53.006486 
L 393.513925 58.185238 
L 394.594441 55.418829 
L 393.271775 55.539904 
L 393.029624 52.89457 
" clip-path="url(#p14e1c615cd)"/>
   </g>
   <g id="Quiver_19">
    <path d="M 393.322305 52.564459 
L 399.886202 53.412552 
L 398.901254 50.584626 
L 411.668034 56.285163 
L 397.87162 58.553584 
L 399.542991 56.068871 
L 392.979094 55.220778 
L 393.322305 52.564459 
" clip-path="url(#p14e1c615cd)"/>
   </g>
   <g id="Quiver_20">
    <path d="M 392.03581 52.826058 
L 409.166338 27.08462 
L 406.194616 26.715626 
L 416.958704 17.792554 
L 412.883955 31.167277 
L 411.396117 28.568503 
L 394.265589 54.309942 
L 392.03581 52.826058 
" clip-path="url(#p14e1c615cd)"/>
   </g>
   <g id="Quiver_21">
    <path d="M 392.479175 56.529776 
L 369.03308 -724.026973 
L 366.396096 -722.60796 
L 370.009802 -736.114547 
L 374.427673 -722.84921 
L 371.710272 -724.107389 
L 395.156367 56.449359 
L 392.479175 56.529776 
" clip-path="url(#p14e1c615cd)"/>
   </g>
   <g id="Quiver_22">
    <path d="M 394.900211 56.95348 
L 383.479654 72.630808 
L 386.433064 73.125431 
L 375.300435 81.584232 
L 379.938428 68.394244 
L 381.314775 71.053746 
L 392.735332 55.376418 
L 394.900211 56.95348 
" clip-path="url(#p14e1c615cd)"/>
   </g>
   <g id="Quiver_23">
    <path d="M 392.499778 56.077713 
L 381.409553 -5.497323 
L 379.010949 -3.704565 
L 380.591103 -17.596645 
L 386.918909 -5.12886 
L 384.04554 -5.972088 
L 395.135764 55.602948 
L 392.499778 56.077713 
" clip-path="url(#p14e1c615cd)"/>
   </g>
   <g id="Quiver_24">
    <path d="M 393.576832 56.309312 
L 392.783232 56.068373 
L 393.094954 57.896512 
L 385.88177 53.106323 
L 394.540588 53.134911 
L 393.26511 54.481173 
L 394.05871 54.722112 
L 393.576832 56.309312 
" clip-path="url(#p14e1c615cd)"/>
   </g>
   <g id="Quiver_25">
    <path d="M 393.388762 55.455626 
L 393.124229 55.026617 
L 392.530744 55.984693 
L 391.172438 50.901004 
L 395.104798 54.397493 
L 393.982247 54.497551 
L 394.24678 54.92656 
L 393.388762 55.455626 
" clip-path="url(#p14e1c615cd)"/>
   </g>
   <g id="Quiver_26">
    <path d="M 392.482871 54.759249 
L 394.163174 33.84039 
L 391.386147 34.960839 
L 396.463105 21.933511 
L 399.39555 35.604193 
L 396.832975 34.054841 
L 395.152672 54.9737 
L 392.482871 54.759249 
" clip-path="url(#p14e1c615cd)"/>
   </g>
   <g id="Quiver_27">
    <path d="M 392.802355 53.748256 
L 393.595955 52.73284 
L 390.771522 52.161056 
L 401.753771 44.387694 
L 396.86402 56.922656 
L 395.626787 54.32004 
L 394.833187 55.335456 
L 392.802355 53.748256 
" clip-path="url(#p14e1c615cd)"/>
   </g>
   <g id="Quiver_28">
    <path d="M 393.638038 52.89457 
L 394.960705 52.714838 
L 393.278573 50.249237 
L 407.044439 52.41991 
L 394.356969 58.185238 
L 395.320171 55.360171 
L 393.997504 55.539904 
L 393.638038 52.89457 
" clip-path="url(#p14e1c615cd)"/>
   </g>
   <g id="Quiver_29">
    <path d="M 393.974406 52.56261 
L 400.521667 53.333681 
L 399.504929 50.51703 
L 412.335106 56.073405 
L 398.565118 58.497079 
L 400.208397 55.993698 
L 393.661136 55.222627 
L 393.974406 52.56261 
" clip-path="url(#p14e1c615cd)"/>
   </g>
   <g id="Quiver_30">
    <path d="M 392.97433 52.527777 
L 407.420321 40.814584 
L 404.693217 39.577578 
L 417.625772 34.263842 
L 409.753861 45.818918 
L 409.107203 42.895031 
L 394.661212 54.608223 
L 392.97433 52.527777 
" clip-path="url(#p14e1c615cd)"/>
   </g>
   <g id="Quiver_31">
    <path d="M 395.821971 56.564033 
L 372.68418 472.037179 
L 375.432901 470.848981 
L 370.676867 483.996867 
L 367.410132 470.402191 
L 370.009923 471.888249 
L 393.147715 56.415103 
L 395.821971 56.564033 
" clip-path="url(#p14e1c615cd)"/>
   </g>
   <g id="Quiver_32">
    <path d="M 395.663308 56.801091 
L 382.871249 80.498624 
L 385.864321 80.592443 
L 375.967506 90.468668 
L 378.793531 76.775592 
L 380.514319 79.226341 
L 393.306378 55.528807 
L 395.663308 56.801091 
" clip-path="url(#p14e1c615cd)"/>
   </g>
   <g id="Quiver_33">
    <path d="M 393.888804 57.039578 
L 391.455362 55.830131 
L 391.462532 58.824665 
L 381.258174 49.266534 
L 395.038765 51.62918 
L 392.64744 53.431636 
L 395.080882 54.641083 
L 393.888804 57.039578 
" clip-path="url(#p14e1c615cd)"/>
   </g>
   <g id="Quiver_34">
    <path d="M 393.956303 56.309312 
L 393.162703 55.780772 
L 392.899223 57.896511 
L 386.548844 50.230311 
L 396.070463 53.134912 
L 394.219783 54.193572 
L 395.013383 54.722112 
L 393.956303 56.309312 
" clip-path="url(#p14e1c615cd)"/>
   </g>
   <g id="Quiver_35">
    <path d="M 393.172046 55.455626 
L 392.907513 54.142829 
L 390.546452 55.984693 
L 391.83951 42.063124 
L 398.423233 54.397493 
L 395.533106 53.613763 
L 395.79764 54.92656 
L 393.172046 55.455626 
" clip-path="url(#p14e1c615cd)"/>
   </g>
   <g id="Quiver_36">
    <path d="M 394.33729 54.601941 
L 394.601824 54.454388 
L 394.042185 54.072875 
L 397.130176 53.390948 
L 394.927501 55.660074 
L 394.896929 54.983455 
L 394.632396 55.131008 
L 394.33729 54.601941 
" clip-path="url(#p14e1c615cd)"/>
   </g>
   <g id="Quiver_37">
    <path d="M 393.925388 53.748256 
L 394.718988 53.188801 
L 392.806477 52.161056 
L 402.420843 48.947304 
L 396.163208 56.922656 
L 395.837898 54.776001 
L 395.044298 55.335456 
L 393.925388 53.748256 
" clip-path="url(#p14e1c615cd)"/>
   </g>
   <g id="Quiver_38">
    <path d="M 394.271814 52.895089 
L 395.599149 52.681225 
L 393.850944 50.249957 
L 407.71151 52.086113 
L 395.129117 58.182845 
L 396.025207 55.325521 
L 394.697872 55.539385 
L 394.271814 52.895089 
" clip-path="url(#p14e1c615cd)"/>
   </g>
   <g id="Quiver_39">
    <path d="M 394.602044 52.558557 
L 401.112824 53.13055 
L 400.013165 50.345225 
L 413.002177 55.519425 
L 399.309956 58.349595 
L 400.878421 55.798673 
L 394.367641 55.22668 
L 394.602044 52.558557 
" clip-path="url(#p14e1c615cd)"/>
   </g>
   <g id="Quiver_40">
    <path d="M 393.604028 52.559227 
L 408.333077 39.698485 
L 405.562675 38.561755 
L 418.292844 32.779925 
L 410.847563 44.61439 
L 410.094707 41.71603 
L 395.365658 54.576773 
L 393.604028 52.559227 
" clip-path="url(#p14e1c615cd)"/>
   </g>
   <g id="Quiver_41">
    <path d="M 395.26999 57.823552 
L 383.46785 58.868201 
L 385.037985 61.418095 
L 371.343913 58.596898 
L 384.329531 53.414187 
L 383.231698 56.200232 
L 395.033839 55.155583 
L 395.26999 57.823552 
" clip-path="url(#p14e1c615cd)"/>
   </g>
   <g id="Quiver_42">
    <path d="M 394.394766 57.269568 
L 385.818999 51.391403 
L 385.40932 54.357789 
L 376.634579 43.472446 
L 389.952213 47.730077 
L 387.333297 49.182166 
L 395.909063 55.06033 
L 394.394766 57.269568 
" clip-path="url(#p14e1c615cd)"/>
   </g>
   <g id="Quiver_43">
    <path d="M 394.697257 57.09999 
L 392.807527 56.417917 
L 393.157871 59.391894 
L 381.925246 51.066335 
L 395.885818 51.833935 
L 393.716842 53.898597 
L 395.606572 54.580671 
L 394.697257 57.09999 
" clip-path="url(#p14e1c615cd)"/>
   </g>
   <g id="Quiver_44">
    <path d="M 394.947413 56.309312 
L 394.153813 56.104811 
L 394.538411 57.896512 
L 387.215914 53.470702 
L 395.765417 53.134912 
L 394.562815 54.517611 
L 395.356415 54.722112 
L 394.947413 56.309312 
" clip-path="url(#p14e1c615cd)"/>
   </g>
   <g id="Quiver_45">
    <path d="M 394.655132 55.455626 
L 394.390598 54.958844 
L 393.661566 55.984693 
L 392.506582 50.223266 
L 396.642263 54.397493 
L 395.384164 54.429777 
L 395.648697 54.92656 
L 394.655132 55.455626 
" clip-path="url(#p14e1c615cd)"/>
   </g>
   <g id="Quiver_46">
    <path d="M 396.487606 54.963355 
L 395.903661 53.758172 
L 394.56797 53.661292 
L 393.816223 54.769594 
L 394.400168 55.974777 
L 395.735859 56.071657 
L 396.487606 54.963355 
L 395.903661 53.758172 
" clip-path="url(#p14e1c615cd)"/>
   </g>
   <g id="Quiver_47">
    <path d="M 395.283236 53.748256 
L 396.076836 53.879578 
L 395.54588 52.161056 
L 403.087915 55.855074 
L 394.757949 56.922656 
L 395.814193 55.466778 
L 395.020593 55.335456 
L 395.283236 53.748256 
" clip-path="url(#p14e1c615cd)"/>
   </g>
   <g id="Quiver_48">
    <path d="M 395.240728 52.89457 
L 396.563395 52.983384 
L 395.418357 50.249237 
L 408.378582 55.105377 
L 394.885472 58.185238 
L 396.385767 55.628718 
L 395.0631 55.539904 
L 395.240728 52.89457 
" clip-path="url(#p14e1c615cd)"/>
   </g>
   <g id="Quiver_49">
    <path d="M 395.599557 52.630449 
L 402.757365 55.169047 
L 402.390481 52.197064 
L 413.669249 60.460003 
L 399.704623 59.770083 
L 401.862079 57.693386 
L 394.704272 55.154788 
L 395.599557 52.630449 
" clip-path="url(#p14e1c615cd)"/>
   </g>
   <g id="Quiver_50">
    <path d="M 396.0493 52.57394 
L 410.910761 65.990098 
L 411.711473 63.104592 
L 418.959915 75.060631 
L 406.327157 69.068952 
L 409.115989 67.978218 
L 394.254529 54.56206 
L 396.0493 52.57394 
" clip-path="url(#p14e1c615cd)"/>
   </g>
   <g id="Quiver_51">
    <path d="M 395.844283 57.828529 
L 384.086933 58.050663 
L 385.476489 60.703288 
L 372.010987 56.939378 
L 385.324705 52.669522 
L 384.036338 55.372741 
L 395.793689 55.150607 
L 395.844283 57.828529 
" clip-path="url(#p14e1c615cd)"/>
   </g>
   <g id="Quiver_52">
    <path d="M 394.8999 57.138981 
L 385.14885 47.937998 
L 384.284711 50.805148 
L 377.301649 38.692194 
L 389.799225 44.960956 
L 386.987022 45.989934 
L 396.738072 55.190917 
L 394.8999 57.138981 
" clip-path="url(#p14e1c615cd)"/>
   </g>
   <g id="Quiver_53">
    <path d="M 396.169131 57.132946 
L 394.576004 57.564493 
L 396.568909 59.79958 
L 382.592318 59.423179 
L 394.468041 52.043886 
L 393.875715 54.979262 
L 395.468841 54.547715 
L 396.169131 57.132946 
" clip-path="url(#p14e1c615cd)"/>
   </g>
   <g id="Quiver_54">
    <path d="M 395.80219 56.309312 
L 395.00859 56.292516 
L 395.768598 57.896511 
L 387.882987 55.347753 
L 395.869374 53.134912 
L 395.042182 54.705316 
L 395.835782 54.722112 
L 395.80219 56.309312 
" clip-path="url(#p14e1c615cd)"/>
   </g>
   <g id="Quiver_55">
    <path d="M 395.958903 55.455626 
L 395.69437 55.595543 
L 396.238737 55.984693 
L 393.173653 56.590264 
L 395.399235 54.397493 
L 395.414536 55.066477 
L 395.679069 54.92656 
L 395.958903 55.455626 
" clip-path="url(#p14e1c615cd)"/>
   </g>
   <g id="Quiver_56">
    <path d="M 395.866279 54.601941 
L 396.130813 54.649234 
L 395.960865 54.072875 
L 398.464319 55.339405 
L 395.677107 55.660074 
L 396.036226 55.178301 
L 395.771693 55.131008 
L 395.866279 54.601941 
" clip-path="url(#p14e1c615cd)"/>
   </g>
   <g id="Quiver_57">
    <path d="M 396.046279 53.748256 
L 396.839879 53.975549 
L 396.500866 52.161056 
L 403.754986 56.814789 
L 395.137106 56.922656 
L 396.385293 55.562749 
L 395.591693 55.335456 
L 396.046279 53.748256 
" clip-path="url(#p14e1c615cd)"/>
   </g>
   <g id="Quiver_58">
    <path d="M 396.19803 52.932799 
L 397.86475 53.424655 
L 397.338399 50.476734 
L 409.045654 58.120487 
L 395.064137 58.183366 
L 397.106663 55.993533 
L 395.439942 55.501676 
L 396.19803 52.932799 
" clip-path="url(#p14e1c615cd)"/>
   </g>
   <g id="Quiver_59">
    <path d="M 396.754268 52.934128 
L 406.645192 62.585562 
L 407.557266 59.733299 
L 414.336322 71.961593 
L 401.945572 65.484241 
L 404.774627 64.502542 
L 394.883704 54.851109 
L 396.754268 52.934128 
" clip-path="url(#p14e1c615cd)"/>
   </g>
   <g id="Quiver_60">
    <path d="M 396.547658 52.444392 
L 410.243192 61.326098 
L 410.576928 58.350211 
L 419.626987 69.007753 
L 406.204896 65.091856 
L 408.785848 63.573313 
L 395.090314 54.691608 
L 396.547658 52.444392 
" clip-path="url(#p14e1c615cd)"/>
   </g>
   <g id="Quiver_61">
    <path d="M 397.676233 57.103521 
L 379.393807 92.544804 
L 382.388112 92.582536 
L 372.678051 102.642431 
L 375.247059 88.898815 
L 377.013456 91.316898 
L 395.295882 55.875614 
L 397.676233 57.103521 
" clip-path="url(#p14e1c615cd)"/>
   </g>
   <g id="Quiver_62">
    <path d="M 395.47099 57.038501 
L 384.815625 44.656966 
L 383.659041 47.419138 
L 377.968722 34.647802 
L 389.749449 42.177824 
L 386.845761 42.909861 
L 397.501126 55.291397 
L 395.47099 57.038501 
" clip-path="url(#p14e1c615cd)"/>
   </g>
   <g id="Quiver_63">
    <path d="M 397.328799 56.88112 
L 393.469242 60.006253 
L 396.195514 61.245092 
L 383.25939 66.550132 
L 391.139068 55.000351 
L 391.78376 57.924673 
L 395.643317 54.79954 
L 397.328799 56.88112 
" clip-path="url(#p14e1c615cd)"/>
   </g>
   <g id="Quiver_64">
    <path d="M 396.655572 56.309312 
L 395.861972 56.478826 
L 396.994601 57.896512 
L 388.550058 57.210857 
L 395.977514 53.134912 
L 395.522943 54.891626 
L 396.316543 54.722112 
L 396.655572 56.309312 
" clip-path="url(#p14e1c615cd)"/>
   </g>
   <g id="Quiver_65">
    <path d="M 396.671694 55.455626 
L 396.407161 55.641263 
L 397.042968 55.984693 
L 393.840725 57.047459 
L 395.929148 54.397493 
L 396.035888 55.112196 
L 396.300421 54.92656 
L 396.671694 55.455626 
" clip-path="url(#p14e1c615cd)"/>
   </g>
   <g id="Quiver_66">
    <path d="M 396.989452 54.601941 
L 397.253986 55.105336 
L 397.996242 54.072874 
L 399.131391 59.90042 
L 394.975874 55.660074 
L 396.247196 55.634402 
L 395.982663 55.131008 
L 396.989452 54.601941 
" clip-path="url(#p14e1c615cd)"/>
   </g>
   <g id="Quiver_67">
    <path d="M 396.887623 53.748256 
L 397.681223 54.149821 
L 397.690752 52.161056 
L 404.422058 58.557505 
L 395.281363 56.922656 
L 396.878093 55.737021 
L 396.084493 55.335456 
L 396.887623 53.748256 
" clip-path="url(#p14e1c615cd)"/>
   </g>
   <g id="Quiver_68">
    <path d="M 397.251469 53.118328 
L 400.587952 55.442252 
L 401.019866 52.479022 
L 409.712726 63.429865 
L 396.427397 59.072478 
L 399.057129 57.640071 
L 395.720646 55.316147 
L 397.251469 53.118328 
" clip-path="url(#p14e1c615cd)"/>
   </g>
   <g id="Quiver_69">
    <path d="M 397.321184 52.845709 
L 406.416331 60.100965 
L 407.039675 57.172019 
L 415.003393 68.664015 
L 402.028915 63.453478 
L 404.746078 62.194785 
L 395.650931 54.939528 
L 397.321184 52.845709 
" clip-path="url(#p14e1c615cd)"/>
   </g>
   <g id="Quiver_70">
    <path d="M 396.823215 52.271936 
L 408.96664 55.430921 
L 408.344891 52.501636 
L 420.294057 59.761402 
L 406.321946 60.278019 
L 408.292325 58.023049 
L 396.1489 54.864064 
L 396.823215 52.271936 
" clip-path="url(#p14e1c615cd)"/>
   </g>
   <g id="Quiver_71">
    <path d="M 395.845279 56.777636 
L 374.629892 -39.541805 
L 372.302259 -37.657819 
L 373.34513 -51.600529 
L 380.149363 -39.386227 
L 377.245593 -40.117942 
L 398.46098 56.201499 
L 395.845279 56.777636 
" clip-path="url(#p14e1c615cd)"/>
   </g>
   <g id="Quiver_72">
    <path d="M 398.442624 56.526419 
L 383.178529 110.978902 
L 386.118988 110.412349 
L 378.6358 122.222881 
L 378.382022 108.243526 
L 380.59954 110.255961 
L 395.863635 55.803478 
L 398.442624 56.526419 
" clip-path="url(#p14e1c615cd)"/>
   </g>
   <g id="Quiver_73">
    <path d="M 398.165477 56.717034 
L 392.829142 62.879007 
L 395.730541 63.620067 
L 383.926462 71.113431 
L 389.656456 58.359845 
L 390.804448 61.1256 
L 396.140782 54.963627 
L 398.165477 56.717034 
" clip-path="url(#p14e1c615cd)"/>
   </g>
   <g id="Quiver_74">
    <path d="M 397.941748 56.309312 
L 397.148148 57.09793 
L 399.518986 57.896512 
L 389.217129 63.401899 
L 394.787273 53.134911 
L 395.570911 55.51073 
L 396.364511 54.722112 
L 397.941748 56.309312 
" clip-path="url(#p14e1c615cd)"/>
   </g>
   <g id="Quiver_75">
    <path d="M 398.461396 55.455626 
L 398.196863 56.763893 
L 401.077929 55.984693 
L 394.507797 68.273758 
L 393.22833 54.397493 
L 395.58033 56.234826 
L 395.844863 54.92656 
L 398.461396 55.455626 
" clip-path="url(#p14e1c615cd)"/>
   </g>
   <g id="Quiver_76">
    <path d="M 398.024422 54.601941 
L 398.288955 55.473233 
L 399.767006 54.072874 
L 399.798463 63.579397 
L 394.539253 55.660075 
L 396.546371 56.0023 
L 396.281837 55.131008 
L 398.024422 54.601941 
" clip-path="url(#p14e1c615cd)"/>
   </g>
   <g id="Quiver_77">
    <path d="M 397.913714 53.748256 
L 398.707314 54.50884 
L 399.434883 52.161056 
L 405.08913 62.1477 
L 394.871376 56.922656 
L 397.186145 56.09604 
L 396.392545 55.335456 
L 397.913714 53.748256 
" clip-path="url(#p14e1c615cd)"/>
   </g>
   <g id="Quiver_78">
    <path d="M 397.916111 53.116639 
L 401.237394 55.419092 
L 401.662757 52.454914 
L 410.379797 63.38652 
L 397.084871 59.058504 
L 399.711431 57.620289 
L 396.390148 55.317835 
L 397.916111 53.116639 
" clip-path="url(#p14e1c615cd)"/>
   </g>
   <g id="Quiver_79">
    <path d="M 397.354236 52.568605 
L 403.955445 53.571273 
L 403.033644 50.722138 
L 415.670464 56.705246 
L 401.827005 58.666222 
L 403.553232 56.219301 
L 396.952023 55.216633 
L 397.354236 52.568605 
" clip-path="url(#p14e1c615cd)"/>
   </g>
   <g id="Quiver_80">
    <path d="M 398.223033 52.762542 
L 414.781911 74.757977 
L 416.11626 72.077157 
L 420.961131 85.192568 
L 409.696838 76.909906 
L 412.642103 76.368893 
L 396.083226 54.373458 
L 398.223033 52.762542 
" clip-path="url(#p14e1c615cd)"/>
   </g>
   <g id="Quiver_81">
    <path d="M 396.710443 57.239163 
L 379.648802 31.979805 
L 378.178881 34.588754 
L 374.012202 21.242386 
L 384.83743 30.091182 
L 381.868318 30.480615 
L 398.929959 55.739972 
L 396.710443 57.239163 
" clip-path="url(#p14e1c615cd)"/>
   </g>
   <g id="Quiver_82">
    <path d="M 396.718858 56.926854 
L 385.058665 40.07189 
L 383.617882 42.697044 
L 379.302865 29.397893 
L 390.225944 38.125615 
L 387.261352 38.548081 
L 398.921545 55.403044 
L 396.718858 56.926854 
" clip-path="url(#p14e1c615cd)"/>
   </g>
   <g id="Quiver_83">
    <path d="M 396.766302 56.666619 
L 390.976225 49.281595 
L 389.694714 51.988071 
L 384.593529 38.97021 
L 396.018111 47.030341 
L 393.084024 47.629018 
L 398.874101 55.014042 
L 396.766302 56.666619 
" clip-path="url(#p14e1c615cd)"/>
   </g>
   <g id="Quiver_84">
    <path d="M 398.079023 56.309312 
L 397.285423 56.568134 
L 398.596667 57.896512 
L 389.884201 58.103932 
L 397.043735 53.134912 
L 396.767779 54.980934 
L 397.561379 54.722112 
L 398.079023 56.309312 
" clip-path="url(#p14e1c615cd)"/>
   </g>
   <g id="Quiver_85">
    <path d="M 398.2775 55.455626 
L 398.012967 55.912925 
L 399.192097 55.984693 
L 395.174868 59.764081 
L 396.448305 54.397493 
L 397.098369 55.383859 
L 397.362902 54.92656 
L 398.2775 55.455626 
" clip-path="url(#p14e1c615cd)"/>
   </g>
   <g id="Quiver_86">
    <path d="M 398.281763 54.601941 
L 398.546296 55.063503 
L 399.204886 54.072874 
L 400.465535 59.48209 
L 396.435517 55.660075 
L 397.623173 55.592569 
L 397.35864 55.131008 
L 398.281763 54.601941 
" clip-path="url(#p14e1c615cd)"/>
   </g>
   <g id="Quiver_87">
    <path d="M 398.541664 53.748256 
L 399.335264 54.469718 
L 399.984589 52.161056 
L 405.756201 61.756481 
L 395.655814 56.922656 
L 397.892339 56.056918 
L 397.098739 55.335456 
L 398.541664 53.748256 
" clip-path="url(#p14e1c615cd)"/>
   </g>
   <g id="Quiver_88">
    <path d="M 397.829562 52.89457 
L 399.152228 52.903931 
L 397.848283 50.249237 
L 411.046869 54.310842 
L 397.79212 58.185238 
L 399.133507 55.549264 
L 397.810841 55.539904 
L 397.829562 52.89457 
" clip-path="url(#p14e1c615cd)"/>
   </g>
   <g id="Quiver_89">
    <path d="M 398.252141 52.624989 
L 405.36081 55.047242 
L 404.957061 52.080043 
L 416.337535 60.202333 
L 402.36542 59.68582 
L 404.49693 57.582501 
L 397.388261 55.160248 
L 398.252141 52.624989 
" clip-path="url(#p14e1c615cd)"/>
   </g>
   <g id="Quiver_90">
    <path d="M 398.900005 52.775863 
L 415.578773 75.511576 
L 416.946243 72.847499 
L 421.6282 86.021946 
L 410.467421 77.60032 
L 413.419165 77.09585 
L 396.740397 54.360137 
L 398.900005 52.775863 
" clip-path="url(#p14e1c615cd)"/>
   </g>
   <g id="Quiver_91">
    <path d="M 397.260024 57.025587 
L 378.276194 13.560917 
L 376.357714 15.860204 
L 374.679272 1.979657 
L 383.721209 12.64409 
L 380.730692 12.488879 
L 399.714522 55.953549 
L 397.260024 57.025587 
" clip-path="url(#p14e1c615cd)"/>
   </g>
   <g id="Quiver_92">
    <path d="M 397.363408 56.893225 
L 385.400558 38.432339 
L 383.881106 41.012755 
L 379.969939 27.589284 
L 390.624291 36.643099 
L 387.648287 36.975787 
L 399.611137 55.436673 
L 397.363408 56.893225 
" clip-path="url(#p14e1c615cd)"/>
   </g>
   <g id="Quiver_93">
    <path d="M 397.655625 56.890006 
L 393.876034 53.89547 
L 393.262412 56.826468 
L 385.260605 45.360961 
L 398.252302 50.528417 
L 395.53933 51.796119 
L 399.318921 54.790655 
L 397.655625 56.890006 
" clip-path="url(#p14e1c615cd)"/>
   </g>
   <g id="Quiver_94">
    <path d="M 398.132345 56.309312 
L 397.338745 55.954384 
L 397.422489 57.896512 
L 390.551272 51.966432 
L 399.552057 53.134911 
L 398.048601 54.367184 
L 398.842201 54.722112 
L 398.132345 56.309312 
" clip-path="url(#p14e1c615cd)"/>
   </g>
   <g id="Quiver_95">
    <path d="M 398.077628 55.455626 
L 397.813095 55.045982 
L 397.258338 55.984693 
L 395.841939 51.094645 
L 399.716207 54.397493 
L 398.632384 54.516915 
L 398.896918 54.92656 
L 398.077628 55.455626 
" clip-path="url(#p14e1c615cd)"/>
   </g>
   <g id="Quiver_96">
    <path d="M 398.331149 54.601941 
L 398.595683 54.445818 
L 398.018902 54.072874 
L 401.132606 53.30524 
L 398.955643 55.660075 
L 398.90793 54.974884 
L 398.643396 55.131008 
L 398.331149 54.601941 
" clip-path="url(#p14e1c615cd)"/>
   </g>
   <g id="Quiver_97">
    <path d="M 398.5942 53.748256 
L 399.3878 53.855183 
L 398.808055 52.161056 
L 406.423273 55.611131 
L 398.16649 56.922656 
L 399.173945 55.442383 
L 398.380345 55.335456 
L 398.5942 53.748256 
" clip-path="url(#p14e1c615cd)"/>
   </g>
   <g id="Quiver_98">
    <path d="M 398.507987 52.894571 
L 399.830653 52.915284 
L 398.549414 50.249237 
L 411.71394 54.424375 
L 398.425131 58.185237 
L 399.789226 55.560618 
L 398.466559 55.539904 
L 398.507987 52.894571 
" clip-path="url(#p14e1c615cd)"/>
   </g>
   <g id="Quiver_99">
    <path d="M 398.914314 52.623331 
L 406.008057 55.009964 
L 405.592853 52.044346 
L 417.004607 60.122627 
L 403.030602 59.660074 
L 405.153974 57.548539 
L 398.060231 55.161907 
L 398.914314 52.623331 
" clip-path="url(#p14e1c615cd)"/>
   </g>
   <g id="Quiver_100">
    <path d="M 398.851307 52.279227 
L 411.060354 55.727867 
L 410.49965 52.786287 
L 422.295276 60.29295 
L 408.315443 60.518924 
L 410.332285 58.305413 
L 398.123238 54.856773 
L 398.851307 52.279227 
" clip-path="url(#p14e1c615cd)"/>
   </g>
   <g id="matplotlib.axis_1">
    <g id="xtick_1">
     <g id="line2d_1">
      <defs>
       <path id="m9353857cbf" d="M 0 0 
L 0 3.5 
" style="stroke: #000000; stroke-width: 0.8"/>
      </defs>
      <g>
       <use xlink:href="#m9353857cbf" x="95.303206" y="307.584" style="stroke: #000000; stroke-width: 0.8"/>
      </g>
     </g>
     <g id="text_1">
      <!-- −200 -->
      <g transform="translate(81.569612 322.182437) scale(0.1 -0.1)">
       <defs>
        <path id="DejaVuSans-2212" d="M 678 2272 
L 4684 2272 
L 4684 1741 
L 678 1741 
L 678 2272 
z
" transform="scale(0.015625)"/>
        <path id="DejaVuSans-32" d="M 1228 531 
L 3431 531 
L 3431 0 
L 469 0 
L 469 531 
Q 828 903 1448 1529 
Q 2069 2156 2228 2338 
Q 2531 2678 2651 2914 
Q 2772 3150 2772 3378 
Q 2772 3750 2511 3984 
Q 2250 4219 1831 4219 
Q 1534 4219 1204 4116 
Q 875 4013 500 3803 
L 500 4441 
Q 881 4594 1212 4672 
Q 1544 4750 1819 4750 
Q 2544 4750 2975 4387 
Q 3406 4025 3406 3419 
Q 3406 3131 3298 2873 
Q 3191 2616 2906 2266 
Q 2828 2175 2409 1742 
Q 1991 1309 1228 531 
z
" transform="scale(0.015625)"/>
        <path id="DejaVuSans-30" d="M 2034 4250 
Q 1547 4250 1301 3770 
Q 1056 3291 1056 2328 
Q 1056 1369 1301 889 
Q 1547 409 2034 409 
Q 2525 409 2770 889 
Q 3016 1369 3016 2328 
Q 3016 3291 2770 3770 
Q 2525 4250 2034 4250 
z
M 2034 4750 
Q 2819 4750 3233 4129 
Q 3647 3509 3647 2328 
Q 3647 1150 3233 529 
Q 2819 -91 2034 -91 
Q 1250 -91 836 529 
Q 422 1150 422 2328 
Q 422 3509 836 4129 
Q 1250 4750 2034 4750 
z
" transform="scale(0.015625)"/>
       </defs>
       <use xlink:href="#DejaVuSans-2212"/>
       <use xlink:href="#DejaVuSans-32" x="83.789062"/>
       <use xlink:href="#DejaVuSans-30" x="147.412109"/>
       <use xlink:href="#DejaVuSans-30" x="211.035156"/>
      </g>
     </g>
    </g>
    <g id="xtick_2">
     <g id="line2d_2">
      <g>
       <use xlink:href="#m9353857cbf" x="170.348767" y="307.584" style="stroke: #000000; stroke-width: 0.8"/>
      </g>
     </g>
     <g id="text_2">
      <!-- −150 -->
      <g transform="translate(156.615173 322.182437) scale(0.1 -0.1)">
       <defs>
        <path id="DejaVuSans-31" d="M 794 531 
L 1825 531 
L 1825 4091 
L 703 3866 
L 703 4441 
L 1819 4666 
L 2450 4666 
L 2450 531 
L 3481 531 
L 3481 0 
L 794 0 
L 794 531 
z
" transform="scale(0.015625)"/>
        <path id="DejaVuSans-35" d="M 691 4666 
L 3169 4666 
L 3169 4134 
L 1269 4134 
L 1269 2991 
Q 1406 3038 1543 3061 
Q 1681 3084 1819 3084 
Q 2600 3084 3056 2656 
Q 3513 2228 3513 1497 
Q 3513 744 3044 326 
Q 2575 -91 1722 -91 
Q 1428 -91 1123 -41 
Q 819 9 494 109 
L 494 744 
Q 775 591 1075 516 
Q 1375 441 1709 441 
Q 2250 441 2565 725 
Q 2881 1009 2881 1497 
Q 2881 1984 2565 2268 
Q 2250 2553 1709 2553 
Q 1456 2553 1204 2497 
Q 953 2441 691 2322 
L 691 4666 
z
" transform="scale(0.015625)"/>
       </defs>
       <use xlink:href="#DejaVuSans-2212"/>
       <use xlink:href="#DejaVuSans-31" x="83.789062"/>
       <use xlink:href="#DejaVuSans-35" x="147.412109"/>
       <use xlink:href="#DejaVuSans-30" x="211.035156"/>
      </g>
     </g>
    </g>
    <g id="xtick_3">
     <g id="line2d_3">
      <g>
       <use xlink:href="#m9353857cbf" x="245.394328" y="307.584" style="stroke: #000000; stroke-width: 0.8"/>
      </g>
     </g>
     <g id="text_3">
      <!-- −100 -->
      <g transform="translate(231.660734 322.182437) scale(0.1 -0.1)">
       <use xlink:href="#DejaVuSans-2212"/>
       <use xlink:href="#DejaVuSans-31" x="83.789062"/>
       <use xlink:href="#DejaVuSans-30" x="147.412109"/>
       <use xlink:href="#DejaVuSans-30" x="211.035156"/>
      </g>
     </g>
    </g>
    <g id="xtick_4">
     <g id="line2d_4">
      <g>
       <use xlink:href="#m9353857cbf" x="320.439889" y="307.584" style="stroke: #000000; stroke-width: 0.8"/>
      </g>
     </g>
     <g id="text_4">
      <!-- −50 -->
      <g transform="translate(309.887545 322.182437) scale(0.1 -0.1)">
       <use xlink:href="#DejaVuSans-2212"/>
       <use xlink:href="#DejaVuSans-35" x="83.789062"/>
       <use xlink:href="#DejaVuSans-30" x="147.412109"/>
      </g>
     </g>
    </g>
    <g id="xtick_5">
     <g id="line2d_5">
      <g>
       <use xlink:href="#m9353857cbf" x="395.48545" y="307.584" style="stroke: #000000; stroke-width: 0.8"/>
      </g>
     </g>
     <g id="text_5">
      <!-- 0 -->
      <g transform="translate(392.3042 322.182437) scale(0.1 -0.1)">
       <use xlink:href="#DejaVuSans-30"/>
      </g>
     </g>
    </g>
    <g id="text_6">
     <!-- q -->
     <g transform="translate(232.985781 335.860562) scale(0.1 -0.1)">
      <defs>
       <path id="DejaVuSans-71" d="M 947 1747 
Q 947 1113 1208 752 
Q 1469 391 1925 391 
Q 2381 391 2643 752 
Q 2906 1113 2906 1747 
Q 2906 2381 2643 2742 
Q 2381 3103 1925 3103 
Q 1469 3103 1208 2742 
Q 947 2381 947 1747 
z
M 2906 525 
Q 2725 213 2448 61 
Q 2172 -91 1784 -91 
Q 1150 -91 751 415 
Q 353 922 353 1747 
Q 353 2572 751 3078 
Q 1150 3584 1784 3584 
Q 2172 3584 2448 3432 
Q 2725 3281 2906 2969 
L 2906 3500 
L 3481 3500 
L 3481 -1331 
L 2906 -1331 
L 2906 525 
z
" transform="scale(0.015625)"/>
      </defs>
      <use xlink:href="#DejaVuSans-71"/>
     </g>
    </g>
   </g>
   <g id="matplotlib.axis_2">
    <g id="ytick_1">
     <g id="line2d_6">
      <defs>
       <path id="m5fe1f50ea6" d="M 0 0 
L -3.5 0 
" style="stroke: #000000; stroke-width: 0.8"/>
      </defs>
      <g>
       <use xlink:href="#m5fe1f50ea6" x="57.6" y="274.146349" style="stroke: #000000; stroke-width: 0.8"/>
      </g>
     </g>
     <g id="text_7">
      <!-- −300 -->
      <g transform="translate(23.132812 277.945568) scale(0.1 -0.1)">
       <defs>
        <path id="DejaVuSans-33" d="M 2597 2516 
Q 3050 2419 3304 2112 
Q 3559 1806 3559 1356 
Q 3559 666 3084 287 
Q 2609 -91 1734 -91 
Q 1441 -91 1130 -33 
Q 819 25 488 141 
L 488 750 
Q 750 597 1062 519 
Q 1375 441 1716 441 
Q 2309 441 2620 675 
Q 2931 909 2931 1356 
Q 2931 1769 2642 2001 
Q 2353 2234 1838 2234 
L 1294 2234 
L 1294 2753 
L 1863 2753 
Q 2328 2753 2575 2939 
Q 2822 3125 2822 3475 
Q 2822 3834 2567 4026 
Q 2313 4219 1838 4219 
Q 1578 4219 1281 4162 
Q 984 4106 628 3988 
L 628 4550 
Q 988 4650 1302 4700 
Q 1616 4750 1894 4750 
Q 2613 4750 3031 4423 
Q 3450 4097 3450 3541 
Q 3450 3153 3228 2886 
Q 3006 2619 2597 2516 
z
" transform="scale(0.015625)"/>
       </defs>
       <use xlink:href="#DejaVuSans-2212"/>
       <use xlink:href="#DejaVuSans-33" x="83.789062"/>
       <use xlink:href="#DejaVuSans-30" x="147.412109"/>
       <use xlink:href="#DejaVuSans-30" x="211.035156"/>
      </g>
     </g>
    </g>
    <g id="ytick_2">
     <g id="line2d_7">
      <g>
       <use xlink:href="#m5fe1f50ea6" x="57.6" y="237.626755" style="stroke: #000000; stroke-width: 0.8"/>
      </g>
     </g>
     <g id="text_8">
      <!-- −250 -->
      <g transform="translate(23.132812 241.425974) scale(0.1 -0.1)">
       <use xlink:href="#DejaVuSans-2212"/>
       <use xlink:href="#DejaVuSans-32" x="83.789062"/>
       <use xlink:href="#DejaVuSans-35" x="147.412109"/>
       <use xlink:href="#DejaVuSans-30" x="211.035156"/>
      </g>
     </g>
    </g>
    <g id="ytick_3">
     <g id="line2d_8">
      <g>
       <use xlink:href="#m5fe1f50ea6" x="57.6" y="201.107161" style="stroke: #000000; stroke-width: 0.8"/>
      </g>
     </g>
     <g id="text_9">
      <!-- −200 -->
      <g transform="translate(23.132812 204.90638) scale(0.1 -0.1)">
       <use xlink:href="#DejaVuSans-2212"/>
       <use xlink:href="#DejaVuSans-32" x="83.789062"/>
       <use xlink:href="#DejaVuSans-30" x="147.412109"/>
       <use xlink:href="#DejaVuSans-30" x="211.035156"/>
      </g>
     </g>
    </g>
    <g id="ytick_4">
     <g id="line2d_9">
      <g>
       <use xlink:href="#m5fe1f50ea6" x="57.6" y="164.587567" style="stroke: #000000; stroke-width: 0.8"/>
      </g>
     </g>
     <g id="text_10">
      <!-- −150 -->
      <g transform="translate(23.132812 168.386785) scale(0.1 -0.1)">
       <use xlink:href="#DejaVuSans-2212"/>
       <use xlink:href="#DejaVuSans-31" x="83.789062"/>
       <use xlink:href="#DejaVuSans-35" x="147.412109"/>
       <use xlink:href="#DejaVuSans-30" x="211.035156"/>
      </g>
     </g>
    </g>
    <g id="ytick_5">
     <g id="line2d_10">
      <g>
       <use xlink:href="#m5fe1f50ea6" x="57.6" y="128.067972" style="stroke: #000000; stroke-width: 0.8"/>
      </g>
     </g>
     <g id="text_11">
      <!-- −100 -->
      <g transform="translate(23.132812 131.867191) scale(0.1 -0.1)">
       <use xlink:href="#DejaVuSans-2212"/>
       <use xlink:href="#DejaVuSans-31" x="83.789062"/>
       <use xlink:href="#DejaVuSans-30" x="147.412109"/>
       <use xlink:href="#DejaVuSans-30" x="211.035156"/>
      </g>
     </g>
    </g>
    <g id="ytick_6">
     <g id="line2d_11">
      <g>
       <use xlink:href="#m5fe1f50ea6" x="57.6" y="91.548378" style="stroke: #000000; stroke-width: 0.8"/>
      </g>
     </g>
     <g id="text_12">
      <!-- −50 -->
      <g transform="translate(29.495313 95.347597) scale(0.1 -0.1)">
       <use xlink:href="#DejaVuSans-2212"/>
       <use xlink:href="#DejaVuSans-35" x="83.789062"/>
       <use xlink:href="#DejaVuSans-30" x="147.412109"/>
      </g>
     </g>
    </g>
    <g id="ytick_7">
     <g id="line2d_12">
      <g>
       <use xlink:href="#m5fe1f50ea6" x="57.6" y="55.028784" style="stroke: #000000; stroke-width: 0.8"/>
      </g>
     </g>
     <g id="text_13">
      <!-- 0 -->
      <g transform="translate(44.2375 58.828003) scale(0.1 -0.1)">
       <use xlink:href="#DejaVuSans-30"/>
      </g>
     </g>
    </g>
    <g id="text_14">
     <!-- q_dot -->
     <g transform="translate(16.775 188.395969) rotate(-90) scale(0.1 -0.1)">
      <defs>
       <path id="DejaVuSans-5f" d="M 3263 -1063 
L 3263 -1509 
L -63 -1509 
L -63 -1063 
L 3263 -1063 
z
" transform="scale(0.015625)"/>
       <path id="DejaVuSans-64" d="M 2906 2969 
L 2906 4863 
L 3481 4863 
L 3481 0 
L 2906 0 
L 2906 525 
Q 2725 213 2448 61 
Q 2172 -91 1784 -91 
Q 1150 -91 751 415 
Q 353 922 353 1747 
Q 353 2572 751 3078 
Q 1150 3584 1784 3584 
Q 2172 3584 2448 3432 
Q 2725 3281 2906 2969 
z
M 947 1747 
Q 947 1113 1208 752 
Q 1469 391 1925 391 
Q 2381 391 2643 752 
Q 2906 1113 2906 1747 
Q 2906 2381 2643 2742 
Q 2381 3103 1925 3103 
Q 1469 3103 1208 2742 
Q 947 2381 947 1747 
z
" transform="scale(0.015625)"/>
       <path id="DejaVuSans-6f" d="M 1959 3097 
Q 1497 3097 1228 2736 
Q 959 2375 959 1747 
Q 959 1119 1226 758 
Q 1494 397 1959 397 
Q 2419 397 2687 759 
Q 2956 1122 2956 1747 
Q 2956 2369 2687 2733 
Q 2419 3097 1959 3097 
z
M 1959 3584 
Q 2709 3584 3137 3096 
Q 3566 2609 3566 1747 
Q 3566 888 3137 398 
Q 2709 -91 1959 -91 
Q 1206 -91 779 398 
Q 353 888 353 1747 
Q 353 2609 779 3096 
Q 1206 3584 1959 3584 
z
" transform="scale(0.015625)"/>
       <path id="DejaVuSans-74" d="M 1172 4494 
L 1172 3500 
L 2356 3500 
L 2356 3053 
L 1172 3053 
L 1172 1153 
Q 1172 725 1289 603 
Q 1406 481 1766 481 
L 2356 481 
L 2356 0 
L 1766 0 
Q 1100 0 847 248 
Q 594 497 594 1153 
L 594 3053 
L 172 3053 
L 172 3500 
L 594 3500 
L 594 4494 
L 1172 4494 
z
" transform="scale(0.015625)"/>
      </defs>
      <use xlink:href="#DejaVuSans-71"/>
      <use xlink:href="#DejaVuSans-5f" x="63.476562"/>
      <use xlink:href="#DejaVuSans-64" x="113.476562"/>
      <use xlink:href="#DejaVuSans-6f" x="176.953125"/>
      <use xlink:href="#DejaVuSans-74" x="238.134766"/>
     </g>
    </g>
   </g>
   <g id="line2d_13">
    <path d="M 395.48545 54.298392 
L 396.838947 54.484777 
L 397.232645 54.74795 
L 397.380192 55.098405 
L 397.203554 55.39463 
L 396.766145 55.615865 
L 395.27891 55.844529 
L 393.012394 55.512516 
L 392.593232 55.804513 
L 392.169539 55.92249 
L 391.85404 55.985744 
L 391.123213 56.665696 
L 388.340476 59.005097 
L 364.784102 76.589409 
L 349.963489 87.69374 
L 221.265845 184.632263 
L 73.832727 295.488 
L 73.832727 295.488 
" clip-path="url(#p14e1c615cd)" style="fill: none; stroke: #ff0000; stroke-width: 1.5; stroke-linecap: square"/>
   </g>
   <g id="patch_3">
    <path d="M 57.6 307.584 
L 57.6 41.472 
" style="fill: none; stroke: #000000; stroke-width: 0.8; stroke-linejoin: miter; stroke-linecap: square"/>
   </g>
   <g id="patch_4">
    <path d="M 414.72 307.584 
L 414.72 41.472 
" style="fill: none; stroke: #000000; stroke-width: 0.8; stroke-linejoin: miter; stroke-linecap: square"/>
   </g>
   <g id="patch_5">
    <path d="M 57.6 307.584 
L 414.72 307.584 
" style="fill: none; stroke: #000000; stroke-width: 0.8; stroke-linejoin: miter; stroke-linecap: square"/>
   </g>
   <g id="patch_6">
    <path d="M 57.6 41.472 
L 414.72 41.472 
" style="fill: none; stroke: #000000; stroke-width: 0.8; stroke-linejoin: miter; stroke-linecap: square"/>
   </g>
  </g>
 </g>
 <defs>
  <clipPath id="p14e1c615cd">
   <rect x="57.6" y="41.472" width="357.12" height="266.112"/>
  </clipPath>
 </defs>
</svg>
